<svg width="52" height="52" viewBox="0 0 52 52" fill="none" xmlns="http://www.w3.org/2000/svg">
<path d="M24.5 14.3H14C13.2044 14.3 12.4413 14.6161 11.8787 15.1787C11.3161 15.7413 11 16.5043 11 17.3V38.3C11 39.0956 11.3161 39.8587 11.8787 40.4213C12.4413 40.9839 13.2044 41.3 14 41.3H35C35.7956 41.3 36.5587 40.9839 37.1213 40.4213C37.6839 39.8587 38 39.0956 38 38.3V27.8" stroke="#F0FEFB" stroke-width="3" stroke-linecap="round" stroke-linejoin="round"/>
<path d="M35.75 12.05C36.3467 11.4533 37.1561 11.118 38 11.118C38.8439 11.118 39.6533 11.4533 40.25 12.05C40.8467 12.6467 41.182 13.4561 41.182 14.3C41.182 15.1439 40.8467 15.9533 40.25 16.55L26 30.8L20 32.3L21.5 26.3L35.75 12.05Z" stroke="#F0FEFB" stroke-width="3" stroke-linecap="round" stroke-linejoin="round"/>
</svg>
