<svg width="52" height="52" viewBox="0 0 52 52" fill="none" xmlns="http://www.w3.org/2000/svg">
<path d="M39.815 31.5349C38.8607 33.7917 37.3681 35.7803 35.4678 37.3269C33.5674 38.8735 31.3171 39.9311 28.9136 40.4071C26.5101 40.8832 24.0266 40.7632 21.6802 40.0576C19.3338 39.3521 17.1959 38.0826 15.4535 36.3599C13.7111 34.6373 12.4172 32.5141 11.6849 30.1759C10.9526 27.8377 10.8043 25.3557 11.2529 22.9469C11.7014 20.5381 12.7332 18.2759 14.258 16.358C15.7829 14.4401 17.7543 12.9249 20 11.9449" stroke="#F0FEFB" stroke-width="3" stroke-linecap="round" stroke-linejoin="round"/>
<path d="M41 25.7C41 23.7302 40.612 21.7796 39.8582 19.9597C39.1044 18.1398 37.9995 16.4863 36.6066 15.0934C35.2137 13.7005 33.5601 12.5956 31.7403 11.8418C29.9204 11.088 27.9698 10.7 26 10.7V25.7H41Z" stroke="#F0FEFB" stroke-width="3" stroke-linecap="round" stroke-linejoin="round"/>
</svg>
