<svg width="268" height="143" viewBox="0 0 268 143" fill="none" xmlns="http://www.w3.org/2000/svg">
<path d="M0.0874206 64.6897C0.140567 62.3191 0.0575279 60.0289 0.280521 57.7689C0.574742 54.787 2.06463 52.355 4.311 50.3864C4.59079 50.1412 4.87089 49.8964 5.1934 49.6141C4.53589 48.4274 3.82848 47.2928 3.25549 46.0939C-1.08714 37.0077 -1.08668 27.8802 3.26598 18.8239C6.47867 12.1395 11.6606 7.29672 18.1995 3.94713C22.9244 1.52681 27.9986 0.347813 33.3364 0.148511C38.8358 -0.0568209 44.1798 0.556692 49.3407 2.48884C50.1603 2.79568 50.6936 2.48884 51.3016 2.07201C55.8769 -1.06479 64.6473 -0.954567 68.9082 4.59103C70.6394 6.84419 71.5795 9.36404 71.6544 12.204C71.7268 14.9504 71.7928 17.697 71.8642 20.4434C71.8689 20.6231 71.8962 20.8022 71.943 21.3017C73.0165 20.0789 74.003 19.101 74.8169 17.996C76.2225 16.0877 77.5876 14.1425 78.8504 12.1376C81.4666 7.9843 85.0782 5.77642 90.0817 5.72685C93.7182 5.69083 96.9364 6.52961 99.6357 9.03509C99.8411 9.22573 100.043 9.42509 100.216 9.64451C100.368 9.83843 100.479 10.066 100.565 10.2079C102.019 8.55345 103.22 6.94802 104.659 5.59608C108.321 2.1563 112.674 0.27271 117.756 0.170382C120.523 0.114667 123.257 0.228345 125.868 1.25836C126.969 1.69239 128.023 2.47525 129.141 2.5669C130.224 2.65558 131.352 2.01301 132.479 1.78255C133.145 1.64642 133.847 1.65371 134.532 1.65289C141.468 1.64451 148.403 1.64508 155.339 1.64861C161.412 1.6517 166.094 5.18736 167.689 11.0226C167.917 11.8545 167.979 12.7436 168.022 13.611C168.077 14.7283 168.035 15.8504 168.035 17.2866C169.958 15.8203 172.273 15.7419 173.767 13.6979C177.599 8.45312 182.803 5.22881 189.327 4.4382C191.168 4.21503 193.057 4.39526 194.923 4.35311C195.324 4.34407 195.791 4.27716 196.109 4.06186C202.509 -0.272118 209.22 -0.864378 216.28 2.28427C216.664 2.45575 217.193 2.52122 217.592 2.40973C223.21 0.838334 228.658 1.24397 233.924 3.76458C236.51 5.00225 238.776 6.69788 240.82 8.70879C241.166 9.04858 241.685 9.32536 242.161 9.40141C250.686 10.7638 257.027 17.1255 258.273 25.5608C258.331 25.9558 258.66 26.4093 258.996 26.6499C263.254 29.6988 266.014 33.7281 266.933 38.9053C267.57 42.5004 267.222 46.0557 266.122 49.5429C265.992 49.9541 265.998 50.4667 266.11 50.887C268.416 59.5108 266.124 66.8686 259.908 73.076C258.129 74.8524 256.373 76.5168 255.13 78.8137C252.922 82.896 249.284 85.6703 245.348 88.01C239.954 91.2157 234.161 93.0631 227.828 93.018C227.461 93.0154 227.049 93.1862 226.733 93.3918C224.752 94.681 222.814 96.038 220.811 97.2926C220.211 97.6687 220.41 97.9936 220.555 98.4477C221.379 101.028 222.455 103.563 222.949 106.206C224.956 116.922 221.419 125.884 213.814 133.393C208.348 138.789 201.723 141.848 194.081 142.558C187.354 143.184 181.05 141.665 175.159 138.399C174.177 137.855 173.225 137.251 172.293 136.625C171.846 136.324 171.534 136.271 171.056 136.615C163.784 141.833 155.694 143.516 146.894 142.231C142.077 141.528 137.537 140.078 133.307 137.652C133.019 137.487 132.439 137.514 132.159 137.699C126.6 141.372 120.413 142.7 113.873 142.426C107.93 142.177 102.39 140.44 97.3773 137.177C96.8474 136.832 96.4853 136.834 95.9665 137.193C90.4261 141.026 84.2336 142.752 77.5396 142.838C69.1206 142.945 61.7157 140.243 55.3554 134.746C50.6029 130.639 47.429 125.476 45.4895 119.531C44.3176 115.939 43.7494 112.241 43.8022 108.472C43.8468 105.281 44.2602 102.125 45.2395 99.0657C45.3483 98.7259 45.4126 98.3719 45.4896 98.0571C42.8353 98.1186 40.285 98.184 37.7344 98.2354C32.6966 98.3369 27.8794 97.2188 23.1755 95.5342C22.489 95.2883 22.0185 95.2991 21.405 95.7699C19.2883 97.3942 16.8668 98.2091 14.182 98.2418C11.9876 98.2685 9.82371 98.2246 7.73128 97.3879C3.17185 95.5647 0.103841 91.1265 0.0919544 86.1509C0.0749392 79.0284 0.0874907 71.9059 0.0874206 64.6897ZM171.308 117.289C171.379 117.428 171.452 117.566 171.52 117.707C174.68 124.219 179.825 128.417 186.818 130.006C194.656 131.788 201.328 129.325 206.649 123.369C211.083 118.407 212.517 112.684 210.545 106.222C208.958 101.019 205.926 96.776 201.876 93.2253C199.169 90.8517 196.184 88.9334 192.609 88.1479C187.365 86.9962 182.793 88.5201 178.711 91.7954C175.489 94.381 173.144 97.6694 171.207 101.188C168.568 94.8886 163.927 90.8491 157.359 89.0659C149.71 86.9894 143.266 88.9651 138.258 95.1333C136.814 96.9124 135.729 98.9829 134.401 100.801C133.042 95.5757 129.983 91.7885 124.946 89.7108C121.776 88.4031 118.447 88.0179 115.043 88.15C110.273 88.3352 105.886 89.6058 102.136 92.6906C99.6037 94.7732 97.7832 97.3875 96.326 100.225C95.6646 98.6757 95.1129 97.0679 94.3211 95.5887C92.0455 91.3382 88.6234 88.4385 83.8948 87.231C81.1912 86.5407 78.4322 86.5326 75.7083 87.0057C66.1596 88.6644 59.3663 93.6733 56.6753 103.292C53.1713 115.816 61.9606 131.722 78.6987 130.673C85.1064 130.271 90.3973 127.67 93.9186 122.102C94.8296 120.661 95.4774 119.054 96.3155 117.64C96.6494 118.345 96.9432 119.072 97.3233 119.75C100.934 126.198 106.512 129.654 113.803 130.244C120.217 130.763 125.725 128.83 129.686 123.508C130.778 122.041 131.61 120.381 132.612 118.951C133.844 122.49 136.16 125.14 139.322 127.079C142.694 129.147 146.421 130.084 150.318 130.419C156.512 130.953 161.892 129.155 166.35 124.757C168.54 122.596 170.065 120.008 171.308 117.289ZM182.271 22.5891C181.824 23.4814 181.321 24.3512 180.949 25.2741C180.725 25.8319 180.413 25.9884 179.853 26.0623C178.711 26.2128 177.554 26.3775 176.457 26.7116C173.544 27.5983 171.308 29.2778 170.97 32.5225C170.826 33.9122 171.07 35.3853 171.379 36.7668C171.667 38.0561 172.274 39.2741 172.776 40.6182C172.396 40.7636 171.974 40.8734 171.603 41.0757C170.103 41.8931 168.504 42.5865 167.156 43.6087C164.91 45.312 164.219 47.7162 164.764 50.4648C165.207 52.6974 166.316 54.6175 167.751 56.3315C168.4 57.1062 168.558 57.7042 168.171 58.71C166.189 63.8506 167.536 68.2158 172.165 71.2497C173.943 72.4154 176.021 73.1207 177.945 74.0729C178.211 74.2048 178.553 74.5516 178.551 74.7972C178.543 76.2544 179.12 77.4875 180.196 78.3374C181.628 79.4691 183.13 80.5958 184.77 81.3661C190.821 84.2077 196.99 84.718 203.233 81.8697C203.455 81.7685 203.912 81.949 204.143 82.1399C205.388 83.1734 206.51 84.3781 207.835 85.29C211.458 87.7826 214.705 87.6569 218.025 84.7911C219.399 83.6057 220.475 82.0653 221.622 80.6347C221.943 80.2349 222.141 80.0712 222.672 80.2174C223.632 80.4814 224.617 80.6991 225.606 80.8054C230.866 81.3709 235.608 79.8832 239.992 77.0627C241.924 75.8201 243.691 74.3993 244.929 72.4125C245.55 71.4149 245.846 70.3455 245.586 69.1951C245.459 68.6338 245.679 68.4384 246.114 68.1921C247.227 67.5625 248.405 66.9881 249.369 66.1705C250.715 65.0286 252.091 63.827 253.102 62.4015C255.757 58.6599 255.274 54.8139 252.952 51.0881C252.556 50.4527 252.614 50.0511 252.937 49.417C253.613 48.0881 254.277 46.7206 254.686 45.2944C256.063 40.4859 254.192 36.9842 249.465 35.3744C248.406 35.0137 247.295 34.8047 246.208 34.525C245.978 34.4658 245.748 34.4031 245.553 34.3512C245.828 32.875 246.172 31.4808 246.335 30.0657C246.893 25.2279 244.575 22.1428 239.812 21.3813C238.711 21.2053 237.572 21.1688 236.456 21.2137C235.626 21.2472 235.116 21.0791 234.654 20.3082C233.47 18.3319 231.901 16.6667 229.951 15.4206C225.803 12.7709 221.652 13.2023 217.556 15.555C216.483 16.1714 215.483 16.915 214.391 17.6392C213.034 14.1262 210.751 12.1119 206.75 12.5492C202.963 12.9633 201.386 15.4389 200.619 18.8293C199.626 18.3729 198.714 17.9038 197.765 17.5255C194.563 16.2488 191.325 15.7686 188.031 17.2166C185.531 18.3155 183.763 20.208 182.271 22.5891ZM37.0102 86.1533C38.5697 86.1272 40.1345 86.1736 41.688 86.0626C48.6355 85.5661 54.6414 82.9938 59.4265 77.8319C66.7292 69.9541 66.5161 58.2941 58.911 50.8315C55.7795 47.7586 52.0534 45.5086 48.1793 43.5314C43.5074 41.1471 38.7614 38.9084 34.0532 36.595C31.4049 35.2937 28.9113 33.7604 26.821 31.6408C23.7405 28.5172 23.1661 24.6445 25.3634 21.2562C26.6571 19.2613 28.4658 17.8577 30.7159 17.0404C33.6478 15.9756 36.6769 15.8434 39.6791 16.4491C46.4081 17.8066 51.3782 21.69 54.8804 27.5179C56.2611 29.8155 57.1109 32.3303 57.6436 34.9474C57.7718 35.5772 58.0001 35.8923 58.6821 35.8102C59.1031 35.7595 59.5353 35.8008 60.0866 35.8008C59.8923 27.8833 59.7011 20.0956 59.5107 12.3342C57.9223 11.9983 57.9246 11.999 57.523 13.3747C57.4093 13.764 57.2925 14.1535 57.1528 14.5341C56.3425 16.7425 54.9439 17.4653 52.6747 16.7722C51.513 16.4174 50.3573 16.0105 49.2518 15.5101C45.4982 13.8112 41.6507 12.4952 37.4931 12.2601C30.595 11.8701 24.3061 13.3435 18.9291 17.9774C10.5818 25.1711 10.0081 37.3914 17.1403 45.1735C20.1042 48.4074 23.6304 50.8413 27.4746 52.8276C32.0788 55.2064 36.7731 57.4101 41.4005 59.7449C44.4493 61.2832 47.3966 62.994 49.6072 65.6982C50.9832 67.3814 51.9088 69.2633 52.0224 71.4744C52.219 75.2976 50.349 78.0529 47.3671 80.1365C43.8573 82.589 39.8484 82.9386 35.7723 82.3804C29.0015 81.4532 23.7504 77.8889 19.6698 72.5293C16.9162 68.9125 15.3262 64.7444 14.3186 60.3538C14.0846 59.3338 13.4559 59.4972 12.7907 59.4996C11.9242 59.5028 12.2128 60.1706 12.2121 60.5951C12.1971 68.7803 12.2002 76.9657 12.204 85.151C12.2041 85.4782 12.2485 85.8055 12.2696 86.096C13.4145 86.3758 14.1289 86.1807 14.7353 85.1259C16.25 82.4911 18.7311 81.4973 21.6726 82.2108C22.7295 82.4672 23.7636 82.8406 24.782 83.2291C28.6772 84.7152 32.6161 86.0036 37.0102 86.1533ZM140.438 62.1589C140.438 65.3448 140.461 68.531 140.429 71.7166C140.408 73.8068 140.389 75.9027 140.223 77.9844C140.014 80.5938 139.172 81.9367 135.734 82.6154C135.222 82.7165 134.698 82.7538 134.204 82.8175C133.943 84.594 133.943 84.5942 135.588 84.5942C144.053 84.5943 152.517 84.5943 160.982 84.5943C161.377 84.5943 161.773 84.5943 162.142 84.5943C162.467 82.8673 162.449 82.8436 160.942 82.6538C160.601 82.6109 160.263 82.5465 159.925 82.4854C157.89 82.1176 156.563 80.9896 156.299 78.8842C156.095 77.2468 155.918 75.5924 155.916 73.9453C155.89 54.3614 155.899 34.7774 155.899 15.1935C155.899 13.8119 155.898 13.8107 154.558 13.8106C148.186 13.8102 141.815 13.8102 135.443 13.8106C134.037 13.8107 134.035 13.8118 134.118 15.1961C134.125 15.3135 134.18 15.428 134.216 15.5534C135.007 15.6867 135.777 15.8033 136.542 15.9478C138.596 16.3361 139.832 17.5526 140.077 19.6406C140.258 21.1875 140.419 22.748 140.422 24.3028C140.449 36.859 140.437 49.4152 140.438 62.1589ZM91.3865 42.6777C91.3865 42.1278 91.3865 41.5779 91.3865 40.9102C95.5379 40.9102 99.5479 40.9102 103.574 40.9102C103.574 39.1504 103.574 37.5148 103.574 35.7608C99.4835 35.7608 95.4717 35.7608 91.3335 35.7608C91.3335 29.7286 91.3335 23.8153 91.3335 17.9533C90.0734 17.6145 89.3406 17.9845 88.8267 19.081C88.3934 20.0056 87.7481 20.8338 87.173 21.6887C82.6266 28.4469 76.7716 33.8705 70.079 38.4399C68.9687 39.198 68.8859 39.4715 69.2891 40.9524C71.4331 40.9524 73.6078 40.9524 75.892 40.9524C75.892 41.4235 75.892 41.7916 75.892 42.1597C75.892 48.2831 75.876 54.4065 75.8975 60.5297C75.9124 64.7468 76.0115 68.9638 76.0125 73.1808C76.0133 76.5421 77.061 79.3905 79.607 81.6928C83.4904 85.2043 88.0404 85.8157 92.9212 84.8116C97.5631 83.8567 100.685 80.8892 102.88 76.8171C103.75 75.2027 103.766 75.2106 102.167 74.3002C102.12 74.2734 102.047 74.2914 101.929 74.2858C101.583 74.7645 101.236 75.281 100.853 75.7692C99.7612 77.1599 98.5568 78.4209 96.8115 78.9878C94.4241 79.7632 92.1631 78.4881 91.7462 76.0141C91.4986 74.5448 91.4073 73.0341 91.4026 71.5414C91.373 61.9816 91.3869 52.4217 91.3865 42.6777ZM128.961 84.5951C130.235 84.5951 131.51 84.5951 132.758 84.5951C133.159 82.9872 133.064 82.842 131.622 82.6573C131.219 82.6058 130.817 82.5404 130.421 82.4547C128.536 82.0472 127.22 81.0303 126.979 79.0123C126.786 77.405 126.583 75.7858 126.578 74.1714C126.545 61.8344 126.56 49.4972 126.56 37.1601C126.56 36.7344 126.56 36.3087 126.56 35.8028C126.071 35.8028 125.732 35.8028 125.392 35.8028C121.144 35.8028 116.897 35.8028 112.649 35.8028C110.275 35.8029 107.901 35.7937 105.528 35.8162C105.262 35.8187 104.851 35.9274 104.759 36.1124C104.353 36.9223 104.779 37.5994 105.673 37.6957C106.014 37.7324 106.355 37.7793 106.692 37.8418C109.348 38.3341 110.315 39.2418 110.749 41.8882C110.961 43.1756 111.046 44.4969 111.049 45.8032C111.073 55.4229 111.069 65.0428 111.053 74.6626C111.051 75.8465 110.972 77.036 110.84 78.2129C110.556 80.7283 109.373 81.9893 106.88 82.515C106.423 82.6113 105.955 82.6881 105.49 82.703C104.906 82.7217 104.703 82.9398 104.676 83.552C104.641 84.3682 104.883 84.6171 105.723 84.6137C113.406 84.5819 121.09 84.5951 128.961 84.5951ZM110.82 23.1891C112.24 26.2655 114.666 27.9498 118.01 28.2854C122.438 28.7297 126.538 25.7345 127.259 21.5788C127.974 17.4625 125.277 13.4585 121.022 12.4679C117.631 11.6783 114.623 12.451 112.255 15.0989C110.173 17.4281 109.798 20.1279 110.82 23.1891Z" fill="#F0FEFB"/>
<path d="M182.303 22.5287C183.763 20.208 185.531 18.3155 188.031 17.2166C191.325 15.7686 194.563 16.2488 197.765 17.5255C198.714 17.9038 199.626 18.3729 200.619 18.8293C201.386 15.4389 202.963 12.9632 206.75 12.5492C210.751 12.1119 213.034 14.1262 214.391 17.6392C215.483 16.915 216.483 16.1714 217.556 15.555C221.652 13.2023 225.803 12.7709 229.951 15.4206C231.901 16.6667 233.47 18.3319 234.654 20.3082C235.116 21.0791 235.626 21.2471 236.456 21.2137C237.572 21.1687 238.711 21.2053 239.812 21.3813C244.575 22.1428 246.893 25.2279 246.335 30.0657C246.172 31.4808 245.828 32.875 245.553 34.3512C245.748 34.4031 245.978 34.4658 246.208 34.525C247.295 34.8047 248.406 35.0137 249.465 35.3744C254.192 36.9842 256.063 40.4859 254.686 45.2943C254.277 46.7206 253.613 48.0881 252.937 49.417C252.614 50.0511 252.556 50.4527 252.952 51.0881C255.274 54.8139 255.756 58.6598 253.102 62.4015C252.091 63.827 250.715 65.0286 249.369 66.1705C248.405 66.9881 247.227 67.5625 246.114 68.1921C245.679 68.4384 245.459 68.6338 245.586 69.195C245.846 70.3455 245.55 71.4148 244.929 72.4125C243.691 74.3993 241.924 75.8201 239.992 77.0627C235.608 79.8832 230.866 81.3709 225.606 80.8054C224.617 80.6991 223.632 80.4814 222.672 80.2174C222.141 80.0712 221.943 80.2349 221.622 80.6347C220.475 82.0653 219.399 83.6056 218.025 84.7911C214.705 87.6568 211.458 87.7826 207.835 85.29C206.51 84.3781 205.388 83.1734 204.143 82.1398C203.912 81.949 203.455 81.7685 203.233 81.8697C196.99 84.718 190.821 84.2077 184.77 81.3661C183.13 80.5958 181.628 79.469 180.196 78.3374C179.12 77.4875 178.543 76.2544 178.551 74.7972C178.553 74.5516 178.211 74.2048 177.945 74.0729C176.021 73.1207 173.943 72.4153 172.165 71.2496C167.536 68.2157 166.189 63.8506 168.171 58.7099C168.558 57.7042 168.4 57.1062 167.751 56.3315C166.316 54.6175 165.207 52.6974 164.764 50.4648C164.219 47.7162 164.91 45.312 167.156 43.6087C168.504 42.5865 170.103 41.8931 171.603 41.0757C171.974 40.8734 172.396 40.7636 172.776 40.6182C172.274 39.2741 171.667 38.0561 171.379 36.7668C171.07 35.3853 170.826 33.9122 170.97 32.5225C171.308 29.2778 173.544 27.5983 176.457 26.7116C177.554 26.3775 178.711 26.2128 179.853 26.0623C180.413 25.9884 180.725 25.8319 180.949 25.2741C181.321 24.3512 181.824 23.4813 182.303 22.5287ZM184.9 52.4044C184.988 53.3666 184.98 54.3507 185.192 55.2848C185.392 56.1668 185.107 56.4991 184.305 56.7659C181.531 57.6887 179.246 59.3173 177.55 61.7222C176.875 62.6788 176.861 63.4429 177.47 63.891C178.063 64.3267 178.595 64.0686 179.293 63.017C180.877 60.6298 183.207 59.3667 185.891 58.53C186.022 58.8241 186.09 59.0313 186.2 59.2134C186.693 60.0339 186.387 60.4437 185.625 60.972C184.301 61.8902 182.953 62.8836 181.942 64.1148C180.792 65.5175 179.966 67.1958 179.07 68.7941C178.719 69.4191 178.934 70.0594 179.631 70.3478C180.328 70.6361 180.74 70.1881 181.032 69.6098C181.089 69.4989 181.122 69.3766 181.172 69.2621C182.382 66.4812 184.334 64.3471 186.89 62.7511C187.1 62.6199 187.452 62.4922 187.635 62.5795C188.417 62.9534 188.921 64.6525 188.485 65.4091C187.487 67.1445 186.973 69.0291 186.681 70.9896C186.568 71.7444 186.781 72.3003 187.592 72.4633C188.27 72.5994 188.665 72.1544 188.851 71.2895C189.107 70.1044 189.422 68.9305 189.761 67.7662C189.884 67.345 190.15 66.9655 190.412 66.4432C196.377 72.708 203.582 75.6066 211.986 75.096C220.415 74.5838 227.252 70.8407 232.487 63.7631C233.077 65.2059 233.565 66.4064 234.058 67.605C234.315 68.2306 234.748 68.6041 235.446 68.359C236.111 68.1254 236.366 67.6073 236.108 66.9371C235.681 65.8326 235.415 64.5867 234.714 63.6863C233.65 62.319 233.765 61.1321 234.596 59.8159C234.612 59.7897 234.626 59.7608 234.636 59.7315C234.866 59.0766 235.247 58.9769 235.862 59.3028C237.915 60.3913 239.639 61.8386 240.944 63.772C241.17 64.1075 241.361 64.5401 241.683 64.7183C242.041 64.9156 242.611 65.0388 242.938 64.8814C243.205 64.7526 243.323 64.1726 243.369 63.7766C243.397 63.5412 243.187 63.2564 243.037 63.0248C241.365 60.4554 239.184 58.4611 236.411 57.1175C236.139 56.9858 235.803 56.6005 235.815 56.3477C235.841 55.7817 236.068 55.2251 236.226 54.6151C236.657 54.7155 236.992 54.7759 237.317 54.8721C239.054 55.3869 240.61 56.2114 241.855 57.5582C241.961 57.6728 242.075 57.7803 242.184 57.8918C242.709 58.4265 243.279 58.7862 243.975 58.1926C244.52 57.7269 244.42 57.0695 243.726 56.3242C241.995 54.4632 239.869 53.2637 237.415 52.6679C236.671 52.4874 236.393 52.1723 236.432 51.3918C236.561 48.834 236.122 46.347 235.25 43.9478C235.005 43.2714 235.119 42.8903 235.694 42.4645C237.739 40.9485 239.541 39.1763 240.938 37.0361C243.217 33.5455 243.2 30.2525 240.942 27.1843C237.823 22.9479 232.703 21.9354 228.371 24.9161C226.569 26.1555 225.026 27.7929 223.471 29.3549C222.904 29.9248 222.526 30.0611 221.804 29.731C218.34 28.1483 214.666 27.4413 210.881 27.4728C205.413 27.5184 200.341 28.9928 195.788 32.0848C195.295 32.4196 194.958 32.4385 194.492 32.0104C192.71 30.3713 190.71 29.0684 188.46 28.1303C184.285 26.3895 180.043 27.6871 177.385 31.581C174.882 35.2477 175.3 39.1252 178.496 42.4664C180.225 44.2748 182.251 45.6544 184.436 46.8239C185.023 47.1381 185.284 47.4547 185.172 48.2095C184.976 49.5306 184.979 50.881 184.9 52.4044Z" fill="#FBA53E"/>
<path d="M36.924 86.1385C32.6161 86.0036 28.6772 84.7152 24.782 83.2291C23.7636 82.8406 22.7295 82.4672 21.6726 82.2108C18.731 81.4973 16.2499 82.4911 14.7353 85.1259C14.1289 86.1807 13.4145 86.3758 12.2695 86.096C12.2485 85.8054 12.2041 85.4782 12.204 85.151C12.2002 76.9657 12.1971 68.7803 12.212 60.5951C12.2128 60.1706 11.9242 59.5028 12.7907 59.4996C13.4559 59.4972 14.0846 59.3338 14.3186 60.3538C15.3262 64.7444 16.9162 68.9125 19.6698 72.5293C23.7504 77.8889 29.0015 81.4532 35.7723 82.3804C39.8484 82.9386 43.8573 82.589 47.3671 80.1365C50.349 78.0529 52.219 75.2976 52.0224 71.4744C51.9088 69.2633 50.9832 67.3814 49.6072 65.6982C47.3966 62.9939 44.4493 61.2832 41.4005 59.7449C36.7731 57.4101 32.0788 55.2064 27.4746 52.8275C23.6304 50.8413 20.1042 48.4074 17.1403 45.1735C10.0081 37.3914 10.5818 25.1711 18.9291 17.9774C24.3061 13.3435 30.595 11.8701 37.4931 12.2601C41.6507 12.4952 45.4982 13.8112 49.2518 15.5101C50.3573 16.0105 51.513 16.4174 52.6747 16.7722C54.9439 17.4653 56.3425 16.7425 57.1528 14.5341C57.2925 14.1535 57.4093 13.764 57.523 13.3747C57.9246 11.999 57.9223 11.9983 59.5107 12.3342C59.7011 20.0956 59.8923 27.8833 60.0866 35.8008C59.5353 35.8008 59.1031 35.7595 58.6821 35.8102C58.0001 35.8923 57.7718 35.5772 57.6436 34.9474C57.1109 32.3303 56.2611 29.8155 54.8804 27.5179C51.3782 21.69 46.4081 17.8066 39.6791 16.4491C36.6768 15.8434 33.6478 15.9756 30.7159 17.0404C28.4658 17.8577 26.6571 19.2613 25.3634 21.2562C23.1661 24.6445 23.7404 28.5172 26.821 31.6408C28.9113 33.7604 31.4049 35.2937 34.0532 36.595C38.7614 38.9084 43.5074 41.1471 48.1793 43.5314C52.0534 45.5086 55.7795 47.7586 58.911 50.8315C66.5161 58.2941 66.7292 69.9541 59.4265 77.8319C54.6413 82.9938 48.6355 85.5661 41.688 86.0626C40.1345 86.1736 38.5697 86.1272 36.924 86.1385Z" fill="#FBA53E"/>
<path d="M140.438 62.0652C140.437 49.4152 140.449 36.859 140.422 24.3028C140.419 22.748 140.258 21.1875 140.077 19.6406C139.832 17.5526 138.596 16.3361 136.542 15.9478C135.777 15.8033 135.007 15.6867 134.216 15.5534C134.18 15.428 134.125 15.3135 134.118 15.1961C134.035 13.8118 134.037 13.8107 135.443 13.8106C141.815 13.8102 148.186 13.8102 154.558 13.8106C155.898 13.8107 155.899 13.8119 155.899 15.1935C155.899 34.7774 155.89 54.3614 155.916 73.9453C155.918 75.5924 156.095 77.2468 156.299 78.8841C156.563 80.9896 157.89 82.1175 159.925 82.4854C160.263 82.5464 160.601 82.6109 160.942 82.6538C162.449 82.8436 162.467 82.8673 162.142 84.5943C161.773 84.5943 161.377 84.5943 160.982 84.5943C152.517 84.5943 144.053 84.5943 135.588 84.5942C133.943 84.5942 133.943 84.594 134.204 82.8175C134.698 82.7538 135.222 82.7165 135.734 82.6154C139.171 81.9367 140.014 80.5938 140.223 77.9844C140.389 75.9027 140.408 73.8068 140.429 71.7165C140.461 68.531 140.438 65.3448 140.438 62.0652Z" fill="#FBA53E"/>
<path d="M132.562 118.81C131.61 120.381 130.778 122.041 129.686 123.508C125.725 128.83 120.217 130.763 113.803 130.244C106.512 129.654 100.934 126.198 97.3233 119.75C96.9432 119.072 96.6494 118.345 96.2882 117.511C97.072 114.587 97.6067 111.76 97.6183 108.825C97.6299 105.924 97.0676 103.127 96.4052 100.334C97.7832 97.3875 99.6037 94.7732 102.136 92.6906C105.886 89.6058 110.273 88.3352 115.043 88.15C118.447 88.0179 121.776 88.4031 124.946 89.7108C129.983 91.7885 133.042 95.5757 134.438 100.936C134.636 103.577 134.959 106.086 134.917 108.589C134.858 112.135 133.853 115.518 132.562 118.81ZM109.778 119.309C109.885 121.481 109.992 123.653 110.1 125.85C110.468 125.85 110.712 125.87 110.953 125.846C113.625 125.586 116.297 125.313 118.969 125.055C120.19 124.937 120.186 124.95 120.012 123.694C118.747 114.576 118.345 105.416 118.672 96.2195C118.71 95.1698 118.678 94.1176 118.678 92.9918C118.297 92.9918 117.961 92.9684 117.629 92.9956C115.513 93.1689 113.399 93.3829 111.281 93.5175C110.576 93.5622 110.345 93.7911 110.285 94.5083C109.593 102.705 109.395 110.909 109.778 119.309Z" fill="#85E085"/>
<path d="M91.3865 42.7698C91.3869 52.4217 91.373 61.9816 91.4026 71.5415C91.4073 73.0341 91.4986 74.5449 91.7462 76.0142C92.1631 78.4881 94.4241 79.7632 96.8115 78.9878C98.5568 78.4209 99.7612 77.1599 100.853 75.7692C101.236 75.281 101.583 74.7646 101.929 74.2858C102.047 74.2914 102.12 74.2734 102.167 74.3002C103.766 75.2107 103.75 75.2027 102.88 76.8171C100.685 80.8892 97.5631 83.8567 92.9212 84.8116C88.0404 85.8157 83.4904 85.2043 79.607 81.6928C77.061 79.3906 76.0133 76.5421 76.0125 73.1808C76.0115 68.9638 75.9124 64.7468 75.8975 60.5297C75.876 54.4065 75.892 48.2831 75.892 42.1597C75.892 41.7916 75.892 41.4235 75.892 40.9524C73.6078 40.9524 71.4331 40.9524 69.2891 40.9524C68.8859 39.4715 68.9687 39.198 70.079 38.4399C76.7716 33.8705 82.6266 28.4469 87.173 21.6888C87.7481 20.8338 88.3934 20.0056 88.8267 19.081C89.3406 17.9845 90.0734 17.6145 91.3335 17.9533C91.3335 23.8153 91.3335 29.7286 91.3335 35.7608C95.4717 35.7608 99.4835 35.7608 103.574 35.7608C103.574 37.5148 103.574 39.1505 103.574 40.9102C99.5479 40.9102 95.5379 40.9102 91.3865 40.9102C91.3865 41.5779 91.3865 42.1278 91.3865 42.7698Z" fill="#FBA53E"/>
<path d="M171.273 101.319C173.144 97.6694 175.488 94.381 178.711 91.7954C182.793 88.5201 187.365 86.9962 192.608 88.1479C196.184 88.9333 199.169 90.8517 201.876 93.2253C205.926 96.776 208.957 101.019 210.545 106.222C212.517 112.684 211.083 118.407 206.649 123.369C201.328 129.325 194.656 131.788 186.818 130.006C179.825 128.417 174.68 124.219 171.52 117.707C171.452 117.566 171.379 117.428 171.256 117.169C169.922 113.875 169.238 110.581 169.764 107.178C170.071 105.195 170.757 103.27 171.273 101.319ZM184.412 111.033C185.338 111.61 186.259 112.195 187.191 112.76C188.284 113.423 189.445 113.989 190.47 114.742C191.834 115.743 191.679 116.569 190.101 117.186C188.397 117.853 186.613 117.898 184.838 117.657C183.214 117.436 181.611 117.064 179.886 116.738C180.23 119.564 180.555 122.343 180.936 125.113C180.964 125.316 181.393 125.595 181.652 125.614C185.341 125.896 189.004 125.73 192.65 125.036C196.48 124.307 199.137 122.338 200.218 118.445C201.55 113.649 200.095 110.11 195.827 108.075C194.532 107.457 193.179 106.956 191.903 106.304C191.05 105.868 190.225 105.329 189.494 104.71C188.535 103.898 188.58 103.037 189.58 102.298C190.149 101.876 190.8 101.534 191.46 101.272C193.645 100.405 195.958 100.29 198.272 100.256C198.983 100.245 199.283 100.03 199.204 99.2662C199.061 97.8698 199.004 96.4646 198.895 95.0643C198.828 94.2118 198.731 93.3618 198.637 92.4042C197.516 92.6303 196.537 92.7997 195.572 93.0274C191.761 93.9262 188 94.9806 184.755 97.2948C179.831 100.807 179.639 107.098 184.412 111.033Z" fill="#6DC4C5"/>
<path d="M96.3656 100.28C97.0676 103.127 97.6298 105.923 97.6183 108.825C97.6067 111.76 97.072 114.587 96.2535 117.453C95.4773 119.054 94.8296 120.661 93.9185 122.102C90.3973 127.67 85.1064 130.271 78.6986 130.673C61.9606 131.722 53.1713 115.816 56.6753 103.292C59.3663 93.6733 66.1596 88.6643 75.7083 87.0057C78.4322 86.5326 81.1912 86.5407 83.8948 87.231C88.6234 88.4385 92.0455 91.3381 94.321 95.5887C95.1129 97.0679 95.6646 98.6757 96.3656 100.28ZM64.9642 99.4446C66.2302 108.088 65.7648 116.743 65.0121 125.448C65.442 125.497 65.747 125.552 66.0536 125.563C68.6749 125.662 71.298 125.725 73.9172 125.861C74.7073 125.902 74.9443 125.628 74.9648 124.877C75.0421 122.037 75.1658 119.198 75.273 116.358C75.2854 116.028 75.3035 115.699 75.331 115.111C79.561 117.855 82.898 121.326 86.4951 124.688C86.6716 124.209 86.7861 123.925 86.8812 123.635C87.6887 121.173 88.4888 118.708 89.2991 116.246C89.7928 114.746 89.8709 114.637 88.5544 113.79C86.1958 112.272 83.7416 110.903 81.3266 109.472C80.9947 109.276 80.6586 109.086 80.2675 108.86C83.2395 104.945 86.8146 101.85 90.6504 98.9538C89.0585 96.2757 87.5178 93.6837 85.9093 90.9776C81.8188 94.32 77.8769 97.6263 74.8032 102.034C74.0787 99.0273 73.4018 96.2183 72.6956 93.2879C69.9917 94.2387 67.404 95.1365 64.8329 96.0794C64.6566 96.1441 64.4882 96.5605 64.5151 96.79C64.6127 97.6255 64.7948 98.4512 64.9642 99.4446Z" fill="#FFC659"/>
<path d="M128.867 84.5951C121.09 84.5951 113.406 84.5819 105.723 84.6137C104.883 84.6171 104.641 84.3682 104.676 83.552C104.702 82.9398 104.906 82.7217 105.49 82.703C105.955 82.6881 106.423 82.6113 106.88 82.515C109.373 81.9893 110.556 80.7283 110.839 78.2129C110.972 77.036 111.051 75.8465 111.053 74.6626C111.069 65.0428 111.073 55.4229 111.049 45.8032C111.046 44.4969 110.961 43.1756 110.749 41.8882C110.315 39.2418 109.348 38.3341 106.692 37.8418C106.355 37.7793 106.014 37.7324 105.673 37.6957C104.779 37.5994 104.353 36.9223 104.759 36.1124C104.851 35.9274 105.262 35.8187 105.528 35.8162C107.901 35.7937 110.275 35.8029 112.649 35.8028C116.897 35.8028 121.144 35.8028 125.392 35.8028C125.732 35.8028 126.071 35.8028 126.56 35.8028C126.56 36.3087 126.56 36.7344 126.56 37.1601C126.56 49.4972 126.545 61.8344 126.578 74.1714C126.583 75.7858 126.786 77.405 126.979 79.0123C127.22 81.0302 128.536 82.0472 130.421 82.4547C130.817 82.5404 131.219 82.6058 131.622 82.6573C133.064 82.842 133.159 82.9872 132.758 84.5951C131.51 84.5951 130.235 84.5951 128.867 84.5951Z" fill="#FBA53E"/>
<path d="M171.24 101.254C170.757 103.27 170.071 105.195 169.764 107.178C169.238 110.581 169.922 113.875 171.216 117.118C170.065 120.008 168.54 122.596 166.35 124.757C161.892 129.155 156.512 130.953 150.318 130.419C146.421 130.084 142.694 129.147 139.322 127.079C136.16 125.14 133.844 122.489 132.587 118.881C133.853 115.518 134.858 112.135 134.917 108.589C134.959 106.086 134.636 103.577 134.477 100.995C135.729 98.9829 136.814 96.9124 138.258 95.1333C143.265 88.9651 149.71 86.9894 157.359 89.0659C163.927 90.8491 168.568 94.8886 171.24 101.254ZM140.909 106.527C141.207 109.413 141.383 112.317 141.838 115.178C142.298 118.068 143.028 120.916 143.657 123.778C143.756 124.23 143.88 124.665 144.534 124.673C148.627 124.719 152.695 124.639 156.735 123.78C162.174 122.624 165.272 119.122 166.509 113.97C167.706 108.986 166.982 104.051 164.75 99.4729C162.775 95.4225 159.536 92.8725 154.811 92.8015C150.11 92.7309 145.704 94.1668 141.331 95.6766C141.075 95.7648 140.821 96.2934 140.821 96.6174C140.817 99.8616 140.866 103.106 140.909 106.527Z" fill="#F29DA6"/>
<path d="M110.792 23.1217C109.798 20.1279 110.173 17.4281 112.255 15.0989C114.623 12.451 117.631 11.6783 121.022 12.468C125.277 13.4585 127.973 17.4625 127.259 21.5788C126.538 25.7345 122.438 28.7297 118.01 28.2854C114.666 27.9498 112.24 26.2655 110.792 23.1217Z" fill="#FBA53E"/>
<path d="M184.899 52.3117C184.979 50.881 184.976 49.5306 185.172 48.2095C185.284 47.4547 185.023 47.1381 184.436 46.8239C182.251 45.6544 180.225 44.2748 178.496 42.4664C175.3 39.1252 174.882 35.2477 177.385 31.581C180.043 27.6871 184.285 26.3895 188.46 28.1303C190.71 29.0684 192.71 30.3713 194.492 32.0104C194.958 32.4385 195.295 32.4197 195.788 32.0848C200.341 28.9928 205.413 27.5184 210.881 27.4728C214.666 27.4413 218.34 28.1484 221.804 29.731C222.526 30.0611 222.904 29.9249 223.471 29.3549C225.026 27.793 226.569 26.1555 228.371 24.9161C232.703 21.9354 237.823 22.9479 240.942 27.1843C243.2 30.2525 243.217 33.5455 240.938 37.0361C239.541 39.1763 237.739 40.9485 235.694 42.4645C235.119 42.8903 235.005 43.2714 235.25 43.9478C236.122 46.347 236.561 48.834 236.432 51.3918C236.393 52.1723 236.671 52.4874 237.415 52.6679C239.869 53.2637 241.995 54.4632 243.726 56.3242C244.42 57.0695 244.52 57.7269 243.975 58.1926C243.279 58.7862 242.709 58.4265 242.184 57.8918C242.075 57.7803 241.961 57.6728 241.855 57.5582C240.61 56.2114 239.054 55.3869 237.317 54.8721C236.992 54.7759 236.657 54.7155 236.226 54.6151C236.068 55.2251 235.841 55.7817 235.815 56.3477C235.803 56.6005 236.139 56.9858 236.411 57.1175C239.184 58.4611 241.365 60.4554 243.037 63.0248C243.187 63.2564 243.397 63.5412 243.369 63.7766C243.323 64.1727 243.205 64.7526 242.938 64.8814C242.611 65.0388 242.041 64.9156 241.683 64.7183C241.361 64.5401 241.17 64.1075 240.944 63.772C239.639 61.8386 237.915 60.3913 235.862 59.3028C235.247 58.9769 234.866 59.0766 234.636 59.7315C234.626 59.7608 234.612 59.7897 234.596 59.8159C233.765 61.1321 233.65 62.319 234.714 63.6863C235.415 64.5867 235.681 65.8326 236.108 66.9371C236.366 67.6073 236.111 68.1254 235.446 68.359C234.748 68.6041 234.315 68.2306 234.058 67.605C233.565 66.4064 233.077 65.2059 232.487 63.7631C227.252 70.8407 220.415 74.5838 211.986 75.096C203.582 75.6066 196.378 72.708 190.412 66.4432C190.15 66.9655 189.884 67.345 189.761 67.7662C189.422 68.9305 189.107 70.1044 188.851 71.2895C188.665 72.1544 188.27 72.5994 187.592 72.4633C186.781 72.3003 186.568 71.7444 186.681 70.9896C186.973 69.0291 187.487 67.1445 188.485 65.4091C188.921 64.6525 188.417 62.9534 187.635 62.5795C187.452 62.4922 187.1 62.6199 186.89 62.7511C184.334 64.3471 182.382 66.4812 181.172 69.2621C181.122 69.3766 181.089 69.4989 181.032 69.6099C180.74 70.1881 180.328 70.6361 179.631 70.3478C178.934 70.0594 178.719 69.4191 179.07 68.7941C179.966 67.1958 180.792 65.5175 181.942 64.1149C182.953 62.8836 184.301 61.8902 185.625 60.972C186.387 60.4437 186.693 60.0339 186.2 59.2134C186.09 59.0313 186.022 58.8241 185.891 58.53C183.207 59.3667 180.877 60.6298 179.293 63.017C178.595 64.0686 178.063 64.3267 177.47 63.891C176.861 63.4429 176.875 62.6788 177.55 61.7222C179.246 59.3173 181.531 57.6888 184.305 56.7659C185.107 56.4991 185.392 56.1668 185.192 55.2848C184.98 54.3507 184.988 53.3667 184.899 52.3117ZM219.996 55.5459C222.093 56.2806 223.794 57.592 224.718 59.5825C225.468 61.1997 225.847 62.9952 226.322 64.7304C226.51 65.4189 226.512 66.1583 226.599 66.8745C226.713 66.9237 226.826 66.973 226.94 67.0222C228.188 65.5215 229.454 64.0346 230.656 62.4982C230.775 62.3464 230.608 61.7426 230.402 61.6017C229.171 60.7628 227.93 59.9191 226.609 59.2373C225.749 58.7933 224.883 58.5357 225.332 57.2967C225.366 57.2038 225.263 57.0681 225.246 56.9491C225.162 56.3929 225.086 55.8356 225.008 55.2786C224.173 54.1892 224.273 53.3197 225.568 52.9723C228.053 52.3053 230.588 51.9352 233.163 52.079C234.052 52.1287 234.286 51.8676 234.282 51.0128C234.259 44.3267 231.436 38.9917 226.313 34.8809C216.174 26.7467 200.673 28.19 192.199 38.0381C188.074 42.8324 186.336 48.3994 187.237 54.7298C187.362 55.6086 187.601 55.8882 188.598 55.7757C190.481 55.5632 192.396 55.5171 194.292 55.5824C196.032 55.6424 196.348 56.4353 195.515 57.8401C195.662 58.3682 195.687 58.9001 195.705 59.4321C195.711 59.6075 195.633 59.8199 195.707 59.9533C196.231 60.904 195.687 61.3386 194.955 61.8243C194.025 62.4412 193.182 63.1894 192.303 63.8827C191.779 64.2966 191.718 64.725 192.257 65.1834C193.775 66.4744 195.285 67.7747 196.811 69.0564C196.998 69.2136 197.262 69.2801 197.483 69.3855C197.483 67.898 197.428 66.5285 197.493 65.1646C197.733 60.113 200.876 56.593 205.68 55.9364C206.11 55.8776 206.584 55.9053 206.962 55.7307C209.173 54.7112 211.538 54.9047 213.862 54.8112C214.438 54.788 215.019 55.0099 215.603 55.0743C217.018 55.2304 218.437 55.3602 219.996 55.5459ZM209.3 68.2319C206.95 68.9003 203.406 67.4639 202.334 65.3255C202.158 64.9743 202.222 64.2376 202.473 64.0115C202.729 63.7819 203.402 63.8417 203.804 63.9997C204.211 64.16 204.475 64.6525 204.865 64.8981C205.647 65.39 206.427 65.9504 207.29 66.2307C208.483 66.6183 209.998 65.7212 210.505 64.5293C210.959 63.4588 210.412 61.8946 209.489 61.1646C208.423 60.322 207.475 59.3321 206.427 58.4652C206.168 58.2507 205.693 58.1278 205.363 58.1941C202.483 58.7739 200.658 60.5155 199.926 63.3597C199.37 65.52 199.562 67.6915 199.884 69.8683C199.988 70.5714 200.27 70.9431 200.944 71.217C204.73 72.7562 208.668 73.2673 212.703 72.9106C216.617 72.5647 220.278 71.3418 223.607 69.2303C223.985 68.9903 224.414 68.3996 224.379 68.0119C224.201 66.0627 224.073 64.0727 223.558 62.1987C222.69 59.0405 220.032 57.1396 216.989 57.2019C216.668 57.2085 216.251 57.3655 216.05 57.5996C215.099 58.7016 214.25 59.8924 213.282 60.9776C212.539 61.8103 212.448 63.8501 213.231 64.6414C214.486 65.9082 216.196 66.0062 217.508 64.8011C218.17 64.1938 218.713 63.4571 219.302 62.7717C219.771 62.2254 220.342 62.0055 220.943 62.4587C221.516 62.8916 221.436 63.5029 221.07 64.0508C220.741 64.5428 220.387 65.0228 219.998 65.4685C218.083 67.6636 215.394 68.7905 212.433 66.7728C212.23 66.6341 211.75 66.7405 211.483 66.8867C210.778 67.2728 210.119 67.7436 209.3 68.2319ZM236.506 26.1086C234.713 25.1018 232.876 25.0815 231.011 25.879C228.743 26.8488 226.976 28.4622 225.423 30.3254C225.201 30.5918 225.187 31.0319 225.077 31.3916C225.436 31.2492 225.803 31.1239 226.149 30.9555C226.278 30.8926 226.351 30.7221 226.462 30.6121C227.861 29.2145 229.338 27.915 231.228 27.2149C233.555 26.3531 235.495 27.1076 236.688 29.272C237.807 31.3035 237.953 33.4414 236.959 35.4821C236.22 37.0008 235.121 38.3501 234.126 39.735C233.816 40.1666 233.55 40.4734 234.164 40.9202C236.056 39.5753 237.701 37.9839 239.022 36.0678C241.37 32.6636 240.879 29.4286 237.63 26.8646C237.313 26.614 236.961 26.4068 236.506 26.1086ZM189.1 30.7886C187.801 30.374 186.528 29.7681 185.196 29.5811C181.321 29.0369 177.188 33.5218 178.001 37.3485C178.197 38.2666 178.627 39.2057 179.183 39.963C180.878 42.2702 183.205 43.8043 185.731 45.0766C186.356 44.3105 185.749 44.0604 185.354 43.7597C183.045 42.0057 181.234 39.9241 180.881 36.9034C180.364 32.4901 183.563 29.9351 187.701 31.4453C188.023 31.5628 188.355 31.6777 188.645 31.8547C189.815 32.5689 190.985 33.2864 192.126 34.0461C192.606 34.3655 192.957 34.4441 193.357 33.6507C191.992 32.7266 190.608 31.7892 189.1 30.7886ZM235.438 33.3507C235.235 32.3309 235.198 31.2385 234.79 30.3083C234.185 28.9258 233.061 28.5255 231.783 29.3037C230.307 30.2024 228.993 31.369 227.625 32.4411C227.186 32.7851 227.478 33.039 227.773 33.34C229.21 34.8082 230.62 36.3043 232.041 37.7885C232.185 37.9386 232.344 38.0745 232.486 38.2073C233.807 37.3186 234.936 35.4793 235.438 33.3507ZM183.722 33.7932C181.772 36.8562 184.024 40.596 186.847 42.0529C188.216 40.0177 189.581 37.9887 191.01 35.8641C189.553 34.6982 187.966 33.651 186.055 33.1531C185.199 32.9301 184.452 33.0531 183.722 33.7932ZM230.483 55.3567C231.512 55.5645 232.542 55.7722 233.686 56.003C233.801 55.4225 233.905 54.8963 234.028 54.2801C231.383 53.9954 228.933 54.3385 226.259 55.013C227.786 55.1334 229.052 55.2332 230.483 55.3567ZM231.079 57.6016C230.087 57.4627 229.095 57.3239 228.104 57.1851C228.094 57.2472 228.083 57.3093 228.073 57.3714C229.396 58.2493 230.718 59.1271 232.143 60.0728C232.439 59.4052 232.704 58.8077 233.009 58.1187C232.301 57.9276 231.767 57.7833 231.079 57.6016ZM190.499 58.7076C191.712 58.4105 192.926 58.1135 194.39 57.7549C192.119 57.4686 190.13 57.6227 188.127 58.0124C188.48 59.4758 188.48 59.4753 189.66 59.0137C189.891 58.9233 190.125 58.8385 190.499 58.7076ZM192.292 60.413C191.395 60.7004 190.498 60.9878 189.463 61.3195C189.846 61.8919 190.095 62.264 190.386 62.6986C191.264 61.9179 192.058 61.212 192.984 60.3882C192.665 60.3882 192.545 60.3882 192.292 60.413Z" fill="#AF7643"/>
<path d="M109.775 119.218C109.395 110.909 109.593 102.705 110.285 94.5083C110.345 93.7911 110.576 93.5622 111.281 93.5175C113.399 93.3829 115.513 93.1689 117.629 92.9956C117.961 92.9684 118.297 92.9918 118.678 92.9918C118.678 94.1176 118.71 95.1698 118.672 96.2195C118.345 105.416 118.747 114.576 120.012 123.694C120.186 124.95 120.19 124.937 118.969 125.055C116.297 125.313 113.625 125.586 110.953 125.846C110.712 125.87 110.468 125.85 110.1 125.85C109.992 123.653 109.885 121.481 109.775 119.218Z" fill="#F0FEFB"/>
<path d="M184.359 110.993C179.639 107.098 179.831 100.807 184.755 97.2948C188 94.9806 191.761 93.9262 195.572 93.0274C196.537 92.7997 197.516 92.6303 198.637 92.4042C198.731 93.3618 198.828 94.2119 198.895 95.0643C199.004 96.4646 199.061 97.8698 199.204 99.2662C199.283 100.03 198.983 100.245 198.272 100.256C195.958 100.29 193.645 100.405 191.46 101.272C190.8 101.534 190.149 101.876 189.58 102.298C188.58 103.037 188.535 103.898 189.494 104.71C190.225 105.329 191.05 105.868 191.903 106.304C193.179 106.956 194.532 107.457 195.827 108.075C200.095 110.11 201.55 113.649 200.218 118.445C199.137 122.338 196.48 124.307 192.65 125.036C189.004 125.73 185.341 125.896 181.652 125.614C181.393 125.595 180.964 125.316 180.936 125.113C180.555 122.343 180.23 119.564 179.886 116.738C181.611 117.064 183.214 117.436 184.838 117.657C186.613 117.898 188.397 117.853 190.101 117.186C191.679 116.569 191.834 115.743 190.47 114.742C189.445 113.989 188.284 113.423 187.191 112.76C186.259 112.195 185.338 111.61 184.359 110.993Z" fill="#F0FEFB"/>
<path d="M64.9547 99.3626C64.7948 98.4512 64.6127 97.6255 64.5151 96.7901C64.4882 96.5605 64.6566 96.1441 64.8329 96.0795C67.404 95.1365 69.9917 94.2387 72.6955 93.2879C73.4018 96.2184 74.0787 99.0273 74.8032 102.034C77.8769 97.6263 81.8188 94.32 85.9093 90.9776C87.5178 93.6838 89.0585 96.2758 90.6504 98.9538C86.8146 101.85 83.2395 104.945 80.2675 108.86C80.6586 109.086 80.9947 109.276 81.3266 109.472C83.7416 110.903 86.1957 112.272 88.5544 113.79C89.8708 114.637 89.7928 114.746 89.2991 116.246C88.4888 118.708 87.6887 121.173 86.8812 123.635C86.7861 123.925 86.6716 124.209 86.4951 124.688C82.898 121.326 79.561 117.855 75.331 115.111C75.3035 115.699 75.2854 116.028 75.273 116.358C75.1657 119.198 75.0421 122.037 74.9648 124.877C74.9443 125.628 74.7073 125.902 73.9172 125.861C71.298 125.725 68.6749 125.662 66.0536 125.563C65.747 125.552 65.442 125.497 65.0121 125.448C65.7648 116.743 66.2302 108.088 64.9547 99.3626Z" fill="#F0FEFB"/>
<path d="M140.905 106.439C140.866 103.106 140.817 99.8616 140.821 96.6174C140.821 96.2934 141.075 95.7648 141.331 95.6766C145.704 94.1668 150.11 92.7309 154.811 92.8015C159.536 92.8725 162.775 95.4226 164.75 99.4729C166.981 104.052 167.706 108.986 166.509 113.97C165.272 119.122 162.174 122.624 156.735 123.78C152.695 124.639 148.627 124.719 144.534 124.673C143.88 124.665 143.756 124.23 143.657 123.778C143.028 120.916 142.298 118.068 141.838 115.178C141.383 112.317 141.207 109.413 140.905 106.439ZM148.931 101.911C148.271 102.025 148.309 102.518 148.366 102.993C148.808 106.677 149.115 110.386 149.748 114.037C150.317 117.318 150.022 116.649 152.915 116.395C156.373 116.091 158.245 114.576 158.732 111.57C159.159 108.94 158.81 106.306 157.636 103.897C156.781 102.142 155.199 101.181 153.227 101.248C151.839 101.294 150.461 101.649 148.931 101.911Z" fill="#F0FEFB"/>
<path d="M219.925 55.5233C218.437 55.3602 217.018 55.2304 215.603 55.0743C215.019 55.0099 214.438 54.788 213.862 54.8112C211.538 54.9047 209.173 54.7112 206.962 55.7307C206.584 55.9053 206.11 55.8776 205.68 55.9364C200.876 56.593 197.733 60.113 197.493 65.1646C197.428 66.5285 197.483 67.898 197.483 69.3855C197.262 69.2801 196.998 69.2136 196.811 69.0564C195.285 67.7747 193.775 66.4744 192.257 65.1834C191.718 64.725 191.779 64.2966 192.303 63.8827C193.182 63.1894 194.025 62.4412 194.955 61.8243C195.687 61.3386 196.231 60.904 195.707 59.9533C195.633 59.8199 195.711 59.6075 195.705 59.4321C195.687 58.9001 195.662 58.3682 195.515 57.8401C196.348 56.4353 196.032 55.6424 194.292 55.5824C192.396 55.5171 190.481 55.5632 188.598 55.7757C187.601 55.8882 187.362 55.6086 187.237 54.7298C186.335 48.3994 188.074 42.8323 192.199 38.0381C200.673 28.19 216.174 26.7467 226.313 34.8809C231.436 38.9917 234.259 44.3267 234.282 51.0128C234.286 51.8676 234.052 52.1287 233.163 52.079C230.588 51.9352 228.053 52.3053 225.568 52.9723C224.273 53.3197 224.173 54.1892 225.008 55.2786C225.086 55.8356 225.162 56.3929 225.246 56.9491C225.263 57.0681 225.366 57.2038 225.332 57.2967C224.883 58.5357 225.749 58.7933 226.609 59.2373C227.93 59.9191 229.171 60.7628 230.402 61.6017C230.608 61.7426 230.775 62.3464 230.656 62.4982C229.454 64.0346 228.188 65.5215 226.94 67.0222C226.826 66.973 226.713 66.9237 226.599 66.8745C226.512 66.1583 226.51 65.4189 226.322 64.7304C225.847 62.9952 225.468 61.1997 224.718 59.5825C223.794 57.592 222.093 56.2806 219.925 55.5233ZM201.6 46.7058C203.647 46.0695 205.039 46.8701 205.57 49.004C205.735 49.6684 206.102 50.0982 206.814 49.9834C207.459 49.8793 207.749 49.4146 207.709 48.7582C207.557 46.2789 205.015 44.1186 202.458 44.2968C199.781 44.4834 197.561 46.9005 197.755 49.4202C197.809 50.1178 198.069 50.6601 198.876 50.6315C199.608 50.6056 199.912 50.1379 199.907 49.4452C199.899 48.243 200.407 47.3456 201.6 46.7058ZM218.82 43.0225C215.714 42.7665 213.22 44.8657 213.094 47.8433C213.056 48.7417 213.453 49.3266 214.149 49.3214C214.991 49.3151 215.237 48.775 215.279 48.0218C215.367 46.3988 216.377 45.2829 217.819 45.1641C219.365 45.0368 220.503 45.8945 220.899 47.5494C221.074 48.2822 221.407 48.8192 222.219 48.6547C223.039 48.4886 223.151 47.8288 223.003 47.1113C222.542 44.8855 221.152 43.5786 218.82 43.0225Z" fill="#FCCD88"/>
<path d="M209.371 68.2062C210.119 67.7435 210.778 67.2728 211.483 66.8867C211.75 66.7404 212.23 66.6341 212.433 66.7728C215.394 68.7905 218.083 67.6636 219.998 65.4685C220.387 65.0228 220.741 64.5428 221.07 64.0507C221.436 63.5029 221.516 62.8916 220.943 62.4587C220.342 62.0055 219.771 62.2254 219.302 62.7716C218.713 63.4571 218.17 64.1937 217.508 64.8011C216.196 66.0062 214.486 65.9082 213.231 64.6414C212.448 63.8501 212.539 61.8103 213.282 60.9776C214.25 59.8924 215.099 58.7016 216.05 57.5996C216.251 57.3655 216.668 57.2085 216.989 57.2019C220.032 57.1396 222.69 59.0404 223.558 62.1987C224.073 64.0727 224.201 66.0627 224.379 68.0119C224.414 68.3996 223.985 68.9903 223.607 69.2303C220.278 71.3418 216.617 72.5647 212.703 72.9106C208.668 73.2673 204.73 72.7562 200.944 71.217C200.27 70.9431 199.988 70.5714 199.884 69.8683C199.562 67.6915 199.37 65.52 199.926 63.3596C200.658 60.5154 202.483 58.7739 205.363 58.1941C205.693 58.1278 206.168 58.2507 206.427 58.4651C207.475 59.3321 208.423 60.322 209.489 61.1646C210.412 61.8946 210.959 63.4587 210.505 64.5293C209.998 65.7212 208.483 66.6183 207.29 66.2307C206.427 65.9504 205.647 65.39 204.865 64.8981C204.475 64.6525 204.211 64.16 203.804 63.9997C203.402 63.8417 202.729 63.7819 202.473 64.0114C202.222 64.2376 202.158 64.9743 202.334 65.3254C203.406 67.4639 206.95 68.9003 209.371 68.2062Z" fill="#FFC659"/>
<path d="M236.565 26.1441C236.961 26.4068 237.313 26.614 237.63 26.8646C240.879 29.4287 241.37 32.6636 239.022 36.0678C237.701 37.9839 236.056 39.5753 234.164 40.9202C233.55 40.4734 233.816 40.1666 234.126 39.735C235.121 38.3501 236.22 37.0008 236.959 35.4821C237.953 33.4414 237.807 31.3035 236.688 29.272C235.495 27.1076 233.555 26.3531 231.228 27.2149C229.338 27.915 227.861 29.2145 226.462 30.6121C226.351 30.7221 226.278 30.8926 226.149 30.9555C225.803 31.1239 225.436 31.2492 225.077 31.3916C225.187 31.0319 225.201 30.5918 225.423 30.3254C226.976 28.4622 228.743 26.8488 231.011 25.879C232.876 25.0816 234.713 25.1018 236.565 26.1441Z" fill="#FCCD88"/>
<path d="M189.162 30.8202C190.608 31.7892 191.992 32.7266 193.357 33.6507C192.957 34.4441 192.606 34.3655 192.126 34.0461C190.985 33.2864 189.815 32.5689 188.645 31.8547C188.355 31.6777 188.023 31.5628 187.701 31.4453C183.563 29.9351 180.364 32.4901 180.881 36.9034C181.234 39.9241 183.045 42.0057 185.354 43.7597C185.749 44.0604 186.356 44.3104 185.731 45.0766C183.205 43.8043 180.878 42.2702 179.183 39.963C178.627 39.2057 178.197 38.2666 178.001 37.3484C177.188 33.5218 181.321 29.0368 185.196 29.5811C186.528 29.7681 187.801 30.374 189.162 30.8202Z" fill="#FCCD88"/>
<path d="M235.42 33.4278C234.936 35.4793 233.807 37.3186 232.486 38.2073C232.344 38.0745 232.185 37.9386 232.041 37.7885C230.62 36.3043 229.21 34.8082 227.772 33.34C227.478 33.039 227.186 32.7851 227.625 32.4411C228.993 31.369 230.307 30.2024 231.783 29.3037C233.061 28.5255 234.185 28.9258 234.79 30.3083C235.198 31.2385 235.235 32.3309 235.42 33.4278Z" fill="#FBA53E"/>
<path d="M183.767 33.7391C184.452 33.0531 185.199 32.9301 186.055 33.1531C187.966 33.651 189.553 34.6982 191.01 35.8641C189.581 37.9887 188.216 40.0177 186.847 42.0529C184.024 40.596 181.772 36.8562 183.767 33.7391Z" fill="#FBA53E"/>
<path d="M230.401 55.3449C229.052 55.2332 227.786 55.1333 226.259 55.013C228.933 54.3385 231.383 53.9954 234.028 54.2801C233.905 54.8963 233.801 55.4225 233.686 56.003C232.542 55.7722 231.512 55.5645 230.401 55.3449Z" fill="#FCCD88"/>
<path d="M231.156 57.6203C231.767 57.7833 232.301 57.9276 233.009 58.1187C232.704 58.8077 232.439 59.4052 232.143 60.0728C230.718 59.1271 229.396 58.2493 228.073 57.3714C228.083 57.3093 228.094 57.2472 228.104 57.1851C229.095 57.3239 230.087 57.4627 231.156 57.6203Z" fill="#FCCD88"/>
<path d="M190.428 58.7294C190.125 58.8385 189.891 58.9233 189.66 59.0137C188.48 59.4753 188.48 59.4758 188.127 58.0124C190.13 57.6227 192.119 57.4686 194.39 57.7549C192.926 58.1135 191.712 58.4105 190.428 58.7294Z" fill="#FCCD88"/>
<path d="M192.359 60.4006C192.545 60.3882 192.665 60.3882 192.984 60.3882C192.058 61.212 191.264 61.9179 190.386 62.6986C190.095 62.264 189.846 61.8919 189.463 61.3195C190.498 60.9878 191.395 60.7004 192.359 60.4006Z" fill="#FCCD88"/>
<path d="M149.005 101.888C150.461 101.649 151.839 101.294 153.227 101.248C155.199 101.181 156.781 102.142 157.636 103.897C158.81 106.306 159.159 108.94 158.732 111.57C158.245 114.576 156.373 116.091 152.915 116.395C150.022 116.649 150.317 117.318 149.748 114.037C149.115 110.386 148.808 106.677 148.366 102.993C148.309 102.518 148.271 102.025 149.005 101.888Z" fill="#F29DA6"/>
<path d="M201.533 46.7359C200.407 47.3456 199.899 48.243 199.907 49.4452C199.912 50.1379 199.608 50.6056 198.876 50.6315C198.069 50.6601 197.809 50.1177 197.755 49.4202C197.561 46.9004 199.781 44.4834 202.458 44.2968C205.015 44.1186 207.557 46.2789 207.709 48.7582C207.749 49.4146 207.459 49.8793 206.814 49.9834C206.102 50.0982 205.735 49.6684 205.57 49.004C205.039 46.8701 203.647 46.0695 201.533 46.7359Z" fill="#AF7643"/>
<path d="M218.896 43.0402C221.152 43.5786 222.542 44.8855 223.003 47.1113C223.151 47.8288 223.039 48.4886 222.219 48.6547C221.407 48.8192 221.074 48.2822 220.899 47.5495C220.503 45.8945 219.365 45.0368 217.819 45.1641C216.377 45.2829 215.367 46.3988 215.279 48.0218C215.237 48.775 214.991 49.3152 214.149 49.3214C213.453 49.3266 213.056 48.7417 213.094 47.8433C213.22 44.8658 215.714 42.7665 218.896 43.0402Z" fill="#AF7643"/>
</svg>
