<svg width="52" height="52" viewBox="0 0 52 52" fill="none" xmlns="http://www.w3.org/2000/svg">
<g clip-path="url(#clip0_35_516)">
<path d="M26 9.80005V42.8" stroke="#F0FEFB" stroke-width="3" stroke-linecap="round" stroke-linejoin="round"/>
<path d="M33.5 15.8H22.25C20.8576 15.8 19.5223 16.3532 18.5377 17.3377C17.5531 18.3223 17 19.6577 17 21.05C17 22.4424 17.5531 23.7778 18.5377 24.7624C19.5223 25.7469 20.8576 26.3 22.25 26.3H29.75C31.1424 26.3 32.4777 26.8532 33.4623 27.8377C34.4469 28.8223 35 30.1577 35 31.55C35 32.9424 34.4469 34.2778 33.4623 35.2624C32.4777 36.2469 31.1424 36.8 29.75 36.8H17" stroke="#F0FEFB" stroke-width="3" stroke-linecap="round" stroke-linejoin="round"/>
</g>
<defs>
<clipPath id="clip0_35_516">
<rect width="36" height="36" fill="white" transform="translate(8 8.30005)"/>
</clipPath>
</defs>
</svg>
