<svg width="52" height="52" viewBox="0 0 52 52" fill="none" xmlns="http://www.w3.org/2000/svg">
<path d="M32.75 22.2L19.25 14.415" stroke="#F0FEFB" stroke-width="3" stroke-linecap="round" stroke-linejoin="round"/>
<path d="M39.5 32.1V20.1C39.4995 19.5739 39.3606 19.0572 39.0973 18.6017C38.834 18.1463 38.4556 17.768 38 17.505L27.5 11.505C27.0439 11.2417 26.5266 11.1031 26 11.1031C25.4734 11.1031 24.9561 11.2417 24.5 11.505L14 17.505C13.5444 17.768 13.166 18.1463 12.9027 18.6017C12.6394 19.0572 12.5005 19.5739 12.5 20.1V32.1C12.5005 32.6261 12.6394 33.1428 12.9027 33.5982C13.166 34.0537 13.5444 34.4319 14 34.695L24.5 40.695C24.9561 40.9583 25.4734 41.0969 26 41.0969C26.5266 41.0969 27.0439 40.9583 27.5 40.695L38 34.695C38.4556 34.4319 38.834 34.0537 39.0973 33.5982C39.3606 33.1428 39.4995 32.6261 39.5 32.1Z" stroke="#F0FEFB" stroke-width="3" stroke-linecap="round" stroke-linejoin="round"/>
<path d="M12.905 18.54L26 26.115L39.095 18.54" stroke="#F0FEFB" stroke-width="3" stroke-linecap="round" stroke-linejoin="round"/>
<path d="M26 41.22V26.1" stroke="#F0FEFB" stroke-width="3" stroke-linecap="round" stroke-linejoin="round"/>
</svg>
