<svg width="52" height="52" viewBox="0 0 52 52" fill="none" xmlns="http://www.w3.org/2000/svg">
<g clip-path="url(#clip0_17_202)">
<path d="M26 30.2C28.4853 30.2 30.5 28.1853 30.5 25.7C30.5 23.2147 28.4853 21.2 26 21.2C23.5147 21.2 21.5 23.2147 21.5 25.7C21.5 28.1853 23.5147 30.2 26 30.2Z" stroke="#2E3332" stroke-width="3" stroke-linecap="round" stroke-linejoin="round"/>
<path d="M37.1 30.2C36.9003 30.6524 36.8408 31.1543 36.929 31.6409C37.0172 32.1275 37.2492 32.5765 37.595 32.93L37.685 33.02C37.9639 33.2986 38.1852 33.6295 38.3362 33.9937C38.4872 34.3579 38.5649 34.7482 38.5649 35.1425C38.5649 35.5367 38.4872 35.9271 38.3362 36.2913C38.1852 36.6555 37.9639 36.9864 37.685 37.265C37.4064 37.5439 37.0755 37.7652 36.7113 37.9162C36.3471 38.0671 35.9567 38.1448 35.5625 38.1448C35.1683 38.1448 34.7779 38.0671 34.4137 37.9162C34.0495 37.7652 33.7186 37.5439 33.44 37.265L33.35 37.175C32.9965 36.8292 32.5475 36.5972 32.0609 36.509C31.5743 36.4207 31.0724 36.4803 30.62 36.68C30.1763 36.8701 29.798 37.1858 29.5315 37.5883C29.2649 37.9907 29.1219 38.4623 29.12 38.945V39.2C29.12 39.9956 28.8039 40.7587 28.2413 41.3213C27.6787 41.8839 26.9156 42.2 26.12 42.2C25.3244 42.2 24.5613 41.8839 23.9987 41.3213C23.4361 40.7587 23.12 39.9956 23.12 39.2V39.065C23.1084 38.5685 22.9477 38.087 22.6588 37.683C22.3699 37.2791 21.9661 36.9714 21.5 36.8C21.0476 36.6003 20.5457 36.5407 20.0591 36.629C19.5725 36.7172 19.1235 36.9492 18.77 37.295L18.68 37.385C18.4014 37.6639 18.0705 37.8852 17.7063 38.0362C17.3421 38.1871 16.9517 38.2648 16.5575 38.2648C16.1633 38.2648 15.7729 38.1871 15.4087 38.0362C15.0445 37.8852 14.7136 37.6639 14.435 37.385C14.1561 37.1064 13.9348 36.7755 13.7838 36.4113C13.6328 36.0471 13.5551 35.6567 13.5551 35.2625C13.5551 34.8682 13.6328 34.4779 13.7838 34.1137C13.9348 33.7495 14.1561 33.4186 14.435 33.14L14.525 33.05C14.8708 32.6965 15.1028 32.2475 15.191 31.7609C15.2792 31.2743 15.2197 30.7724 15.02 30.32C14.8299 29.8763 14.5141 29.498 14.1117 29.2314C13.7093 28.9649 13.2377 28.8219 12.755 28.82H12.5C11.7044 28.82 10.9413 28.5039 10.3787 27.9413C9.81607 27.3787 9.5 26.6156 9.5 25.82C9.5 25.0243 9.81607 24.2613 10.3787 23.6987C10.9413 23.1361 11.7044 22.82 12.5 22.82H12.635C13.1315 22.8084 13.613 22.6477 14.0169 22.3587C14.4209 22.0698 14.7286 21.6661 14.9 21.2C15.0997 20.7476 15.1592 20.2457 15.071 19.7591C14.9828 19.2725 14.7508 18.8235 14.405 18.47L14.315 18.38C14.0361 18.1014 13.8148 17.7705 13.6638 17.4063C13.5128 17.0421 13.4351 16.6517 13.4351 16.2575C13.4351 15.8632 13.5128 15.4729 13.6638 15.1087C13.8148 14.7445 14.0361 14.4136 14.315 14.135C14.5936 13.8561 14.9245 13.6348 15.2887 13.4838C15.6529 13.3328 16.0433 13.2551 16.4375 13.2551C16.8317 13.2551 17.2221 13.3328 17.5863 13.4838C17.9505 13.6348 18.2814 13.8561 18.56 14.135L18.65 14.225C19.0035 14.5708 19.4525 14.8028 19.9391 14.891C20.4257 14.9792 20.9276 14.9197 21.38 14.72H21.5C21.9437 14.5298 22.322 14.2141 22.5885 13.8117C22.8551 13.4092 22.9981 12.9377 23 12.455V12.2C23 11.4043 23.3161 10.6413 23.8787 10.0787C24.4413 9.51605 25.2044 9.19998 26 9.19998C26.7956 9.19998 27.5587 9.51605 28.1213 10.0787C28.6839 10.6413 29 11.4043 29 12.2V12.335C29.0019 12.8177 29.1449 13.2892 29.4115 13.6917C29.678 14.0941 30.0563 14.4098 30.5 14.6C30.9524 14.7997 31.4543 14.8592 31.9409 14.771C32.4275 14.6828 32.8765 14.4508 33.23 14.105L33.32 14.015C33.5986 13.7361 33.9295 13.5148 34.2937 13.3638C34.6579 13.2128 35.0483 13.1351 35.4425 13.1351C35.8367 13.1351 36.2271 13.2128 36.5913 13.3638C36.9555 13.5148 37.2864 13.7361 37.565 14.015C37.8439 14.2936 38.0652 14.6245 38.2162 14.9887C38.3672 15.3529 38.4449 15.7432 38.4449 16.1375C38.4449 16.5317 38.3672 16.9221 38.2162 17.2863C38.0652 17.6505 37.8439 17.9814 37.565 18.26L37.475 18.35C37.1292 18.7035 36.8972 19.1525 36.809 19.6391C36.7208 20.1257 36.7803 20.6276 36.98 21.08V21.2C37.1701 21.6436 37.4859 22.022 37.8883 22.2885C38.2907 22.555 38.7623 22.6981 39.245 22.7H39.5C40.2956 22.7 41.0587 23.0161 41.6213 23.5787C42.1839 24.1413 42.5 24.9043 42.5 25.7C42.5 26.4956 42.1839 27.2587 41.6213 27.8213C41.0587 28.3839 40.2956 28.7 39.5 28.7H39.365C38.8823 28.7019 38.4107 28.8449 38.0083 29.1114C37.6059 29.378 37.2901 29.7563 37.1 30.2Z" stroke="#2E3332" stroke-width="3" stroke-linecap="round" stroke-linejoin="round"/>
</g>
<defs>
<clipPath id="clip0_17_202">
<rect width="36" height="36" fill="white" transform="translate(8 7.69998)"/>
</clipPath>
</defs>
</svg>
