<svg width="52" height="48" viewBox="0 0 52 48" fill="none" xmlns="http://www.w3.org/2000/svg">
<path d="M34.3303 39.4103C33.5909 31.927 33.617 27.6899 34.3303 20.0712L37.5535 23.2944C39.5449 20.5661 40.7634 19.2166 43.1941 17.2509C40.5138 13.3865 38.4402 11.6291 34.3303 8.79004" stroke="#F0FEFB" stroke-width="3" stroke-linecap="round" stroke-linejoin="round"/>
<path d="M17.6696 39.4103C19.2812 39.4103 29.6222 39.4103 34.5913 39.4103" stroke="#F0FEFB" stroke-width="3" stroke-linejoin="round"/>
<path d="M17.6696 8.79004C24.204 10.8485 27.8197 11.0273 34.1884 8.79004" stroke="#F0FEFB" stroke-width="3" stroke-linecap="round" stroke-linejoin="round"/>
<path d="M17.6696 39.4103C18.409 31.927 18.3829 27.6899 17.6696 20.0712L14.4464 23.2944C12.455 20.5661 11.2365 19.2166 8.80582 17.2509C11.4861 13.3865 13.5597 11.6291 17.6696 8.79004" stroke="#F0FEFB" stroke-width="3" stroke-linecap="round" stroke-linejoin="round"/>
</svg>
