<svg width="52" height="52" viewBox="0 0 52 52" fill="none" xmlns="http://www.w3.org/2000/svg">
<path d="M12.5 17.3H15.5H39.5" stroke="#2E3332" stroke-width="3" stroke-linecap="round" stroke-linejoin="round"/>
<path d="M36.5 17.3V38.3C36.5 39.0956 36.1839 39.8587 35.6213 40.4213C35.0587 40.9839 34.2956 41.3 33.5 41.3H18.5C17.7044 41.3 16.9413 40.9839 16.3787 40.4213C15.8161 39.8587 15.5 39.0956 15.5 38.3V17.3M20 17.3V14.3C20 13.5043 20.3161 12.7413 20.8787 12.1787C21.4413 11.6161 22.2044 11.3 23 11.3H29C29.7956 11.3 30.5587 11.6161 31.1213 12.1787C31.6839 12.7413 32 13.5043 32 14.3V17.3" stroke="#2E3332" stroke-width="3" stroke-linecap="round" stroke-linejoin="round"/>
<path d="M23 24.8V33.8" stroke="#2E3332" stroke-width="3" stroke-linecap="round" stroke-linejoin="round"/>
<path d="M29 24.8V33.8" stroke="#2E3332" stroke-width="3" stroke-linecap="round" stroke-linejoin="round"/>
</svg>
