<svg width="52" height="52" viewBox="0 0 52 52" fill="none" xmlns="http://www.w3.org/2000/svg">
<path d="M32 12.6H9.5V32.1H32V12.6Z" stroke="#F0FEFB" stroke-width="3" stroke-linecap="round" stroke-linejoin="round"/>
<path d="M32 20.1H38L42.5 24.6V32.1H32V20.1Z" stroke="#F0FEFB" stroke-width="3" stroke-linecap="round" stroke-linejoin="round"/>
<path d="M16.25 39.6C18.3211 39.6 20 37.9211 20 35.85C20 33.7789 18.3211 32.1 16.25 32.1C14.1789 32.1 12.5 33.7789 12.5 35.85C12.5 37.9211 14.1789 39.6 16.25 39.6Z" stroke="#F0FEFB" stroke-width="3" stroke-linecap="round" stroke-linejoin="round"/>
<path d="M35.75 39.6C37.8211 39.6 39.5 37.9211 39.5 35.85C39.5 33.7789 37.8211 32.1 35.75 32.1C33.6789 32.1 32 33.7789 32 35.85C32 37.9211 33.6789 39.6 35.75 39.6Z" stroke="#F0FEFB" stroke-width="3" stroke-linecap="round" stroke-linejoin="round"/>
</svg>
